<svg width="354" height="383" viewBox="0 0 354 383" fill="none" xmlns="http://www.w3.org/2000/svg">
<path d="M187.225 0.430786H341.067C347.432 0.430973 352.621 5.30608 352.845 11.4142H352.818V181.382C352.818 187.649 347.573 192.777 341.031 192.777H190.745C183.81 192.777 178.136 198.215 178.136 204.995V371.109C178.136 377.376 172.89 382.504 166.349 382.504H12.542C6.03436 382.504 0.754934 377.409 0.754883 371.109V201.553L0.758789 201.26C0.919269 195.127 6.10262 190.158 12.542 190.158H162.828C169.763 190.158 175.437 184.721 175.438 177.941V11.8263C175.438 5.55973 180.683 0.430786 187.225 0.430786Z" fill="#5A00DD" fill-opacity="0.1" stroke="" stroke-width="0.82266"/>
</svg>
