<svg width="49" height="48" viewBox="0 0 49 48" fill="none" xmlns="http://www.w3.org/2000/svg">
<g clip-path="url(#clip0_146_264)">
<path d="M6.5 11C6.5 9.344 7.844 8 9.5 8C11.156 8 12.5 9.344 12.5 11C12.5 12.656 11.156 14 9.5 14C7.844 14 6.5 12.656 6.5 11ZM17.5 14C19.156 14 20.5 12.656 20.5 11C20.5 9.344 19.156 8 17.5 8C15.844 8 14.5 9.344 14.5 11C14.5 12.656 15.844 14 17.5 14ZM48.5 12V36C48.5 41.514 44.014 46 38.5 46H10.5C4.986 46 0.5 41.514 0.5 36V12C0.5 6.486 4.986 2 10.5 2H38.5C44.014 2 48.5 6.486 48.5 12ZM4.5 12V16H44.5V12C44.5 8.692 41.808 6 38.5 6H10.5C7.192 6 4.5 8.692 4.5 12ZM44.5 36V20H4.5V36C4.5 39.308 7.192 42 10.5 42H38.5C41.808 42 44.5 39.308 44.5 36ZM20.914 26.414C21.696 25.632 21.696 24.368 20.914 23.586C20.132 22.804 18.868 22.804 18.086 23.586L13.724 27.948C11.98 29.692 11.98 32.528 13.762 34.308L18.124 38.45C18.922 39.212 20.19 39.18 20.95 38.378C21.712 37.578 21.678 36.312 20.878 35.552L16.554 31.444C16.37 31.26 16.37 30.96 16.554 30.776L20.916 26.414H20.914ZM30.914 23.586C30.132 22.804 28.868 22.804 28.086 23.586C27.304 24.368 27.304 25.632 28.086 26.414L32.448 30.776C32.632 30.96 32.632 31.26 32.47 31.422L28.152 35.608C27.36 36.376 27.34 37.644 28.11 38.436C28.88 39.23 30.146 39.248 30.938 38.478L35.278 34.27C37.022 32.526 37.022 29.69 35.278 27.946L30.916 23.584L30.914 23.586Z" fill="white" fill-opacity="0.85"/>
</g>
<defs>
<clipPath id="clip0_146_264">
<rect width="48" height="48" fill="white" transform="translate(0.5)"/>
</clipPath>
</defs>
</svg>
