<svg width="49" height="48" viewBox="0 0 49 48" fill="none" xmlns="http://www.w3.org/2000/svg">
<g clip-path="url(#clip0_146_271)">
<path d="M46.25 34C47.354 34 48.25 33.104 48.25 32C48.25 30.896 47.354 30 46.25 30H44.322L44.534 28.238C44.666 27.142 43.884 26.146 42.786 26.014C41.696 25.87 40.694 26.664 40.562 27.762L40.294 30H34.024L34.236 28.238C34.368 27.142 33.586 26.146 32.488 26.014C31.396 25.87 30.396 26.664 30.264 27.762L29.996 30H27.25C26.146 30 25.25 30.896 25.25 32C25.25 33.104 26.146 34 27.25 34H29.516L28.796 40H26.252C25.148 40 24.252 40.896 24.252 42C24.252 43.104 25.148 44 26.252 44H28.316L28.104 45.762C27.972 46.858 28.628 48.032 30.092 48C31.09 48 31.952 47.254 32.074 46.238L32.342 44H38.612L38.4 45.762C38.268 46.858 39.042 48.012 40.388 48C41.386 48 42.248 47.254 42.37 46.238L42.638 44H45.248C46.352 44 47.248 43.104 47.248 42C47.248 40.896 46.352 40 45.248 40H43.118L43.838 34H46.246H46.25ZM39.092 40H32.822L33.542 34H39.812L39.092 40ZM22.25 30V34C22.25 35.104 21.354 36 20.25 36C19.146 36 18.25 35.104 18.25 34V30C18.25 28.896 19.146 28 20.25 28C21.354 28 22.25 28.896 22.25 30ZM18.25 44H10.25C6.942 44 4.25 41.308 4.25 38V26C4.25 22.692 6.942 20 10.25 20H30.25C32.082 20 33.788 20.82 34.934 22.25C35.624 23.112 36.884 23.248 37.746 22.56C38.608 21.87 38.746 20.61 38.056 19.748C37.024 18.46 35.714 17.482 34.25 16.844V14C34.25 6.28 27.97 0 20.25 0C12.53 0 6.25 6.28 6.25 14V16.848C2.724 18.396 0.25 21.91 0.25 26V38C0.25 43.514 4.736 48 10.25 48H18.25C19.354 48 20.25 47.104 20.25 46C20.25 44.896 19.354 44 18.25 44ZM10.25 14C10.25 8.486 14.736 4 20.25 4C25.764 4 30.25 8.486 30.25 14V16H10.25V14Z" fill="white" fill-opacity="0.85"/>
</g>
<defs>
<clipPath id="clip0_146_271">
<rect width="48" height="48" fill="white" transform="translate(0.25)"/>
</clipPath>
</defs>
</svg>
