<svg width="49" height="48" viewBox="0 0 49 48" fill="none" xmlns="http://www.w3.org/2000/svg">
<g clip-path="url(#clip0_146_257)">
<path d="M11.75 22C15.61 22 18.75 18.86 18.75 15C18.75 11.14 15.61 8 11.75 8C7.89 8 4.75 11.14 4.75 15C4.75 18.86 7.89 22 11.75 22ZM11.75 12C13.404 12 14.75 13.346 14.75 15C14.75 16.654 13.404 18 11.75 18C10.096 18 8.75 16.654 8.75 15C8.75 13.346 10.096 12 11.75 12ZM18.412 28.628C17.794 29.546 16.554 29.792 15.636 29.176C14.486 28.404 13.142 27.998 11.75 27.998C8.176 27.998 5.186 30.672 4.792 34.218C4.678 35.24 3.812 35.998 2.806 35.998C2.734 35.998 2.66 35.994 2.584 35.986C1.486 35.864 0.696002 34.874 0.816002 33.778C1.434 28.204 6.134 23.998 11.75 23.998C13.938 23.998 16.05 24.638 17.864 25.852C18.782 26.468 19.028 27.71 18.412 28.628ZM31.75 14C35.61 14 38.75 10.86 38.75 7C38.75 3.14 35.61 0 31.75 0C27.89 0 24.75 3.14 24.75 7C24.75 10.86 27.89 14 31.75 14ZM31.75 4C33.404 4 34.75 5.346 34.75 7C34.75 8.654 33.404 10 31.75 10C30.096 10 28.75 8.654 28.75 7C28.75 5.346 30.096 4 31.75 4ZM34.75 20C27.032 20 20.75 26.282 20.75 34C20.75 41.718 27.032 48 34.75 48C42.468 48 48.75 41.718 48.75 34C48.75 26.282 42.468 20 34.75 20ZM34.75 44C29.236 44 24.75 39.514 24.75 34C24.75 28.486 29.236 24 34.75 24C40.264 24 44.75 28.486 44.75 34C44.75 39.514 40.264 44 34.75 44ZM41.194 31.576C41.958 32.372 41.932 33.638 41.136 34.404L36.71 38.652C35.806 39.544 34.606 39.994 33.404 39.994C32.202 39.994 30.998 39.544 30.078 38.646L27.814 36.428C27.024 35.654 27.014 34.388 27.786 33.6C28.558 32.81 29.824 32.798 30.614 33.572L32.876 35.788C33.164 36.072 33.634 36.066 33.92 35.784L38.366 31.516C39.16 30.754 40.428 30.776 41.194 31.574V31.576Z" fill="white" fill-opacity="0.85"/>
</g>
<defs>
<clipPath id="clip0_146_257">
<rect width="48" height="48" fill="white" transform="translate(0.75)"/>
</clipPath>
</defs>
</svg>
